<?xml version="1.0" standalone="no"?><!DOCTYPE svg PUBLIC "-//W3C//DTD SVG 1.1//EN" "http://www.w3.org/Graphics/SVG/1.1/DTD/svg11.dtd"><svg t="1610957909353" class="icon" viewBox="0 0 1024 1024" version="1.1" xmlns="http://www.w3.org/2000/svg" p-id="8806" xmlns:xlink="http://www.w3.org/1999/xlink" width="32" height="32"><defs><style type="text/css"></style></defs><path d="M755.57 354.669h-487.473c-22.452 0-40.622 18.17-40.622 40.622s18.171 40.621 40.622 40.621h487.473c22.454 0 40.621-18.169 40.621-40.621s-18.166-40.622-40.621-40.622zM755.57 192.178h-487.473c-22.452 0-40.622 18.17-40.622 40.622s18.171 40.622 40.622 40.622h487.473c22.454 0 40.621-18.171 40.621-40.622 0-22.453-18.166-40.622-40.621-40.622zM958.683 674.301v-563.369c0-44.867-36.374-81.245-81.245-81.245h-731.21c-44.866 0-81.245 36.379-81.245 81.245v812.454c0 44.869 36.38 81.247 81.245 81.247h479.19c12.915 2.64 26.864-1.045 36.886-11.069l284.876-284.875c9.38-9.382 13.213-22.199 11.503-34.389zM674.324 866.659v-146.385h146.386l-146.386 146.385zM877.437 639.027h-243.737c-22.45 0-40.621 18.171-40.621 40.624 0 0.073 0.004 0.146 0.005 0.219-0.001 0.073-0.005 0.146-0.005 0.219v243.299h-406.227c-22.45 0-40.622-18.169-40.622-40.621v-731.21c0-22.452 18.172-40.622 40.622-40.622h649.962c22.454 0 40.622 18.171 40.622 40.622v487.472z" p-id="8807"></path></svg>