<?xml version="1.0" standalone="no"?><!DOCTYPE svg PUBLIC "-//W3C//DTD SVG 1.1//EN" "http://www.w3.org/Graphics/SVG/1.1/DTD/svg11.dtd"><svg t="1610957845181" class="icon" viewBox="0 0 1024 1024" version="1.1" xmlns="http://www.w3.org/2000/svg" p-id="5220" xmlns:xlink="http://www.w3.org/1999/xlink" width="32" height="32"><defs><style type="text/css"></style></defs><path d="M121.9 259.8h489.9c31.5 0 57.1-28.6 57.1-63.9s-25.5-63.9-57-63.9h-490c-31.5 0-57.1 28.6-57.1 63.9s25.6 63.9 57.1 63.9zM128.7 575.9h766.6c35.3 0 63.9-28.6 63.9-63.9s-28.6-63.9-63.9-63.9H128.7c-35.3 0-63.9 28.6-63.9 63.9s28.6 63.9 63.9 63.9zM895.3 764.2H128.7c-35.3 0-63.9 28.6-63.9 63.9S93.4 892 128.7 892h766.6c35.3 0 63.9-28.6 63.9-63.9s-28.6-63.9-63.9-63.9z" p-id="5221"></path></svg>